HIERARCHY
ROOT Hips
{
	OFFSET 0.000000 0.000000 0.000000
	CHANNELS 6 Xposition Yposition Zposition Zrotation Yrotation Xrotation 
	JOINT LHipJoint
	{
		OFFSET 0.000000 0.000000 0.000000
		CHANNELS 3 Zrotation Yrotation Xrotation
		JOINT LeftUpLeg
		{
			OFFSET 8.178360 -10.767780 5.035740
			CHANNELS 3 Zrotation Yrotation Xrotation
			JOINT LeftLeg
			{
				OFFSET 14.688660 -40.356780 0.000000
				CHANNELS 3 Zrotation Yrotation Xrotation
				JOINT LeftFoot
				{
					OFFSET 15.373200 -42.237540 0.000000
					CHANNELS 3 Zrotation Yrotation Xrotation
					JOINT LeftToeBase
					{
						OFFSET 0.945840 -2.598660 13.935300
						CHANNELS 3 Zrotation Yrotation Xrotation
						End Site
						{
							OFFSET 0.000000 0.000000 0.000000
						}
					}
				}
			}
		}
	}
	JOINT RHipJoint
	{
		OFFSET 0.000000 0.000000 0.000000
		CHANNELS 3 Zrotation Yrotation Xrotation
		JOINT RightUpLeg
		{
			OFFSET -7.833120 -10.767780 5.035740
			CHANNELS 3 Zrotation Yrotation Xrotation
			JOINT RightLeg
			{
				OFFSET -15.255180 -41.913300 0.000000
				CHANNELS 3 Zrotation Yrotation Xrotation
				JOINT RightFoot
				{
					OFFSET -15.409560 -42.337380 0.000000
					CHANNELS 3 Zrotation Yrotation Xrotation
					JOINT RightToeBase
					{
						OFFSET -0.988380 -2.715540 14.178900
						CHANNELS 3 Zrotation Yrotation Xrotation
						End Site
						{
							OFFSET 0.000000 0.000000 0.000000
						}
					}
				}
			}
		}
	}
	JOINT LowerBack
	{
		OFFSET 0.000000 0.000000 0.000000
		CHANNELS 3 Zrotation Yrotation Xrotation
		JOINT Spine
		{
			OFFSET 0.169620 12.213540 -1.160280
			CHANNELS 3 Zrotation Yrotation Xrotation
			JOINT Spine1
			{
				OFFSET 0.340320 12.293100 -0.256500
				CHANNELS 3 Zrotation Yrotation Xrotation
				JOINT Neck
				{
					OFFSET 0.000000 0.000000 0.000000
					CHANNELS 3 Zrotation Yrotation Xrotation
					JOINT Neck1
					{
						OFFSET -0.325020 10.477440 1.032120
						CHANNELS 3 Zrotation Yrotation Xrotation
						JOINT Head
						{
							OFFSET 0.624420 10.568160 -0.743820
							CHANNELS 3 Zrotation Yrotation Xrotation
							End Site
							{
								OFFSET 0.000000 0.000000 0.000000
							}
						}
					}
				}
				JOINT LeftShoulder
				{
					OFFSET 0.000000 0.000000 0.000000
					CHANNELS 3 Zrotation Yrotation Xrotation
					JOINT LeftArm
					{
						OFFSET 20.174460 7.205340 -1.867260
						CHANNELS 3 Zrotation Yrotation Xrotation
						JOINT LeftForeArm
						{
							OFFSET 29.898000 -0.000000 -0.000000
							CHANNELS 3 Zrotation Yrotation Xrotation
							JOINT LeftHand
							{
								OFFSET 20.901360 -0.000000 -0.000000
								CHANNELS 3 Zrotation Yrotation Xrotation
								JOINT LeftFingerBase
								{
									OFFSET 0.000000 0.000000 0.000000
									CHANNELS 3 Zrotation Yrotation Xrotation
									JOINT LeftHandIndex1
									{
										OFFSET 4.291560 -0.000000 -0.000000
										CHANNELS 3 Zrotation Yrotation Xrotation
										End Site
										{
											OFFSET 0.000000 0.000000 0.000000
										}
									}
								}
								JOINT LThumb
								{
									OFFSET 0.000000 0.000000 0.000000
									CHANNELS 3 Zrotation Yrotation Xrotation
									End Site
									{
										OFFSET 0.000000 0.000000 0.000000
									}
								}
							}
						}
					}
				}
				JOINT RightShoulder
				{
					OFFSET 0.000000 0.000000 0.000000
					CHANNELS 3 Zrotation Yrotation Xrotation
					JOINT RightArm
					{
						OFFSET -18.819600 8.244300 -2.427900
						CHANNELS 3 Zrotation Yrotation Xrotation
						JOINT RightForeArm
						{
							OFFSET -31.451400 -0.000000 -0.000000
							CHANNELS 3 Zrotation Yrotation Xrotation
							JOINT RightHand
							{
								OFFSET -20.665020 -0.000000 -0.000000
								CHANNELS 3 Zrotation Yrotation Xrotation
								JOINT RightFingerBase
								{
									OFFSET 0.000000 0.000000 0.000000
									CHANNELS 3 Zrotation Yrotation Xrotation
									JOINT RightHandIndex1
									{
										OFFSET -3.735180 -0.000000 -0.000000
										CHANNELS 3 Zrotation Yrotation Xrotation
										End Site
										{
											OFFSET 0.000000 0.000000 0.000000
										}
									}
								}
								JOINT RThumb
								{
									OFFSET 0.000000 0.000000 0.000000
									CHANNELS 3 Zrotation Yrotation Xrotation
									End Site
									{
										OFFSET 0.000000 0.000000 0.000000
									}
								}
							}
						}
					}
				}
			}
		}
	}
}
MOTION
Frames:	6
Frame Time:	0.0333333
4.418034 102.430602 96.495912 4.866968 5.320898 -3.844383 2.790128 2.873214 1.297777 -27.044182 -4.322762 3.198534 3.341537 10.233713 34.123543 1.557883 -6.101053 -7.865871 0.558800 -4.788200 -13.305300 -4.325012 -3.086531 1.045699 15.622100 14.821482 -23.433387 -1.344394 -6.949196 20.140825 1.788885 -11.485934 -3.437912 -0.024000 1.001100 -2.751900 -5.958777 -1.481540 7.063986 0.218749 -2.716625 -1.192621 5.175720 -1.007066 -4.412319 -9.156190 -4.131782 -16.077041 6.303782 -3.981281 10.761709 3.982000 -1.950300 9.131300 -6.202379 3.153727 -2.621181 -77.253769 -7.601853 38.253788 28.881528 -41.681346 -14.081678 -0.405325 -2.280070 -9.730995 20.098062 14.823140 6.390700 -7.125000 0.000000 0.000000 -6.757900 48.037200 -0.508500 5.135769 -2.389626 -2.180172 84.007083 -12.357198 7.912957 -13.468795 20.512235 -3.041582 1.040695 -0.715528 7.018794 -14.622971 13.835072 -4.000200 7.125000 0.000000 0.000000 7.989900 -15.177800 5.675700 
3.551976 101.848392 101.244390 5.351273 6.074038 -4.411309 2.884631 2.934107 1.309014 -26.677391 -3.712953 5.446919 3.810023 10.706123 36.077138 1.681714 -7.573057 -6.664989 0.812600 -5.752400 -16.067800 -4.326404 -3.133301 1.002262 15.718874 13.711324 -23.926448 -2.038853 -8.391473 24.191543 0.908805 -11.961625 13.925203 -0.033500 -1.180800 3.246500 -6.793565 -1.585494 7.384500 0.137509 -2.930980 -1.066770 5.481558 -1.130096 -4.221450 -8.939285 -3.812344 -16.007008 5.889449 -3.591239 10.875429 3.827000 -1.802900 9.087500 -6.231068 3.166913 -2.618649 -75.146873 -7.976193 41.468304 28.067866 -41.134054 -13.573483 -0.502541 -2.131233 -5.020156 18.876933 13.695177 5.540600 -7.125000 0.000000 0.000000 -7.698400 46.573000 -0.300600 5.202995 -2.492115 -2.178992 83.575287 -13.638742 6.264275 -12.597661 19.335377 -2.697067 0.846170 -0.683574 10.163499 -12.751179 12.463737 -3.128300 7.125000 0.000000 0.000000 9.386200 -16.773000 6.364900 
2.708316 101.622042 105.589194 2.508229 5.414214 -5.424059 2.988186 2.987404 1.311619 -22.844370 -3.675951 5.123442 5.047675 12.114868 41.414601 1.537990 -8.328799 -3.155259 1.431100 -7.564200 -21.398100 -4.524256 -3.163646 1.041293 20.968218 12.337890 -24.285653 -2.837232 -9.907889 29.388591 0.555879 -8.375442 11.888268 -0.063600 -1.627400 4.477100 -4.148579 -1.472164 8.400660 0.694705 -2.555632 -1.199082 5.468030 -0.920812 -5.157825 -9.189441 -3.452556 -15.535234 5.532820 -3.076401 11.854775 3.816600 -1.664400 9.347400 -6.231186 3.173116 -2.647745 -75.021170 -6.771758 41.034797 27.336273 -40.533597 -13.077118 -0.305430 -2.117641 1.976118 14.339237 16.213741 4.693800 -7.125000 0.000000 0.000000 -13.126900 48.485600 -1.146900 5.352413 -2.543144 -2.176789 82.626879 -14.532926 3.209436 -11.538546 17.806057 -2.261727 0.708259 -0.784620 13.942736 -11.800733 12.307691 -2.868200 7.125000 0.000000 0.000000 10.094400 -16.924900 6.826100 
2.074662 101.809056 109.535166 0.833026 5.105276 -6.137430 3.139635 2.936702 1.235685 -20.774354 -4.571322 2.700311 6.877273 13.912460 48.806077 1.161639 -7.864372 4.548259 0.950600 -6.208900 -17.391800 -4.685457 -3.166193 1.017313 24.114558 11.984206 -23.032969 -3.422069 -10.741342 32.526308 0.752191 -7.948951 8.583909 -0.014000 -0.763700 2.098700 -2.688423 -1.490142 9.170595 1.121767 -2.407841 -1.058839 5.664906 -0.857709 -5.219986 -9.024758 -3.174616 -15.396112 4.940244 -2.701779 11.826628 3.581400 -1.547600 9.232400 -6.369741 3.149371 -2.624257 -76.620553 -6.079169 37.526299 24.741604 -38.117173 -11.068132 -0.736112 -2.070312 5.336045 18.095975 14.708236 5.603700 -7.125000 0.000000 0.000000 -8.843900 47.553100 -0.561300 5.621437 -2.568010 -2.079377 81.683732 -13.047660 -2.334537 -10.403435 16.031108 -1.810354 0.528776 -0.845508 18.878609 -10.745206 11.580296 -2.463900 7.125000 0.000000 0.000000 10.909800 -17.679200 7.213800 
1.280022 102.307140 112.985466 -1.062533 6.119865 -6.104206 3.273371 2.825877 1.177126 -18.547272 -7.012084 -1.956033 8.958661 15.619513 56.383076 1.073963 -7.182713 9.193972 0.522300 -4.631800 -12.861400 -4.812344 -3.169781 0.957622 27.180042 11.749594 -20.708774 -3.492168 -10.667089 32.672898 1.217910 -9.659594 5.989753 -0.025400 -1.029000 2.828500 -1.489539 -1.894649 9.058834 1.597082 -2.801566 -0.997932 6.019675 -1.052192 -4.927962 -8.683561 -2.970576 -15.179322 4.523551 -2.523783 12.323230 3.351900 -1.505900 9.301400 -6.558900 3.148715 -2.550444 -79.246367 -5.129519 32.698936 21.405831 -34.582753 -8.518134 -0.946203 -2.390229 2.751403 21.498431 17.489388 8.001500 -7.125000 0.000000 0.000000 -6.142700 51.341500 -0.962600 5.846501 -2.592303 -2.024502 81.592584 -11.099967 -8.185095 -10.375224 15.932387 -1.766197 0.541008 -0.579287 20.258264 -10.621564 8.514833 -1.766900 7.125000 0.000000 0.000000 11.183600 -21.019200 6.551800 
0.894498 103.089072 115.907424 -1.742392 7.149128 -5.939103 3.377946 2.732511 1.155055 -18.668576 -9.203567 -5.805076 10.655663 16.735024 61.779389 0.293673 -0.999136 3.873566 1.043100 -6.495200 -18.228200 -4.846076 -3.191901 0.840779 28.579703 10.279657 -18.451117 -3.293716 -10.191386 31.456209 1.411406 -10.253847 4.889189 -0.009000 -0.612100 1.682000 -0.876224 -1.999911 9.183101 1.796779 -2.870238 -0.880285 5.938099 -1.094585 -4.677914 -8.708567 -3.109391 -15.277935 4.891472 -2.755498 12.960964 3.469000 -1.594500 9.574900 -6.825261 3.150680 -2.402908 -81.567365 -5.237628 27.880896 17.759822 -30.117462 -5.990605 -1.190111 -2.527350 -0.820550 24.285041 16.712880 8.964600 -7.125000 0.000000 0.000000 -2.770100 51.142300 -0.419400 5.928154 -2.532293 -2.023214 82.075401 -9.416641 -10.558434 -11.345867 17.367173 -2.077022 0.777767 -0.381133 16.869656 -12.640194 7.039891 -1.713100 7.125000 0.000000 0.000000 9.712500 -22.648600 5.297700 
